<svg width="187" height="73" viewBox="0 0 187 73" fill="none" xmlns="http://www.w3.org/2000/svg">
<circle cx="3.5" cy="14.5" r="3.5" fill="white"/>
<circle cx="15.5" cy="14.5" r="3.5" fill="white"/>
<circle cx="27.5" cy="14.5" r="3.5" fill="white"/>
<circle cx="39.5" cy="14.5" r="3.5" fill="white"/>
<circle cx="51.5" cy="14.5" r="3.5" fill="white"/>
<circle cx="63.5" cy="14.5" r="3.5" fill="white"/>
<circle cx="75.5" cy="14.5" r="3.5" fill="white"/>
<circle cx="87.5" cy="14.5" r="3.5" fill="white"/>
<circle cx="99.5" cy="14.5" r="3.5" fill="white"/>
<circle cx="111.5" cy="14.5" r="3.5" fill="white"/>
<circle cx="123.5" cy="14.5" r="3.5" fill="white"/>
<circle cx="135.5" cy="14.5" r="3.5" fill="white"/>
<circle cx="147.5" cy="14.5" r="3.5" fill="white"/>
<circle cx="159.5" cy="14.5" r="3.5" fill="white"/>
<circle cx="171.5" cy="14.5" r="3.5" fill="white"/>
<circle cx="183.5" cy="14.5" r="3.5" fill="white"/>
<circle cx="3.5" cy="44.5" r="3.5" fill="white"/>
<circle cx="15.5" cy="44.5" r="3.5" fill="white"/>
<circle cx="27.5" cy="44.5" r="3.5" fill="white"/>
<circle cx="39.5" cy="44.5" r="3.5" fill="white"/>
<circle cx="51.5" cy="44.5" r="3.5" fill="white"/>
<circle cx="63.5" cy="44.5" r="3.5" fill="white"/>
<circle cx="75.5" cy="44.5" r="3.5" fill="white"/>
<circle cx="87.5" cy="44.5" r="3.5" fill="white"/>
<circle cx="99.5" cy="44.5" r="3.5" fill="white"/>
<circle cx="111.5" cy="44.5" r="3.5" fill="white"/>
<circle cx="123.5" cy="44.5" r="3.5" fill="white"/>
<circle cx="135.5" cy="44.5" r="3.5" fill="white"/>
<circle cx="147.5" cy="44.5" r="3.5" fill="white"/>
<circle cx="159.5" cy="44.5" r="3.5" fill="white"/>
<circle cx="171.5" cy="44.5" r="3.5" fill="white"/>
<circle cx="183.5" cy="44.5" r="3.5" fill="white"/>
<circle cx="3.5" cy="28.5" r="3.5" fill="white"/>
<circle cx="15.5" cy="28.5" r="3.5" fill="white"/>
<circle cx="27.5" cy="28.5" r="3.5" fill="white"/>
<circle cx="39.5" cy="28.5" r="3.5" fill="white"/>
<circle cx="51.5" cy="28.5" r="3.5" fill="white"/>
<circle cx="63.5" cy="28.5" r="3.5" fill="white"/>
<circle cx="75.5" cy="28.5" r="3.5" fill="white"/>
<circle cx="87.5" cy="28.5" r="3.5" fill="white"/>
<circle cx="99.5" cy="28.5" r="3.5" fill="white"/>
<circle cx="111.5" cy="28.5" r="3.5" fill="white"/>
<circle cx="123.5" cy="28.5" r="3.5" fill="white"/>
<circle cx="135.5" cy="28.5" r="3.5" fill="white"/>
<circle cx="147.5" cy="28.5" r="3.5" fill="white"/>
<circle cx="159.5" cy="28.5" r="3.5" fill="white"/>
<circle cx="171.5" cy="28.5" r="3.5" fill="white"/>
<circle cx="183.5" cy="28.5" r="3.5" fill="white"/>
<circle cx="3.5" cy="58.5" r="3.5" fill="white"/>
<circle cx="15.5" cy="58.5" r="3.5" fill="white"/>
<circle cx="27.5" cy="58.5" r="3.5" fill="white"/>
<circle cx="39.5" cy="58.5" r="3.5" fill="white"/>
<circle cx="51.5" cy="58.5" r="3.5" fill="white"/>
<circle cx="63.5" cy="58.5" r="3.5" fill="white"/>
<circle cx="75.5" cy="58.5" r="3.5" fill="white"/>
<circle cx="87.5" cy="58.5" r="3.5" fill="white"/>
<circle cx="99.5" cy="58.5" r="3.5" fill="white"/>
<circle cx="111.5" cy="58.5" r="3.5" fill="white"/>
<circle cx="123.5" cy="58.5" r="3.5" fill="white"/>
<circle cx="135.5" cy="58.5" r="3.5" fill="white"/>
<circle cx="147.5" cy="58.5" r="3.5" fill="white"/>
<circle cx="159.5" cy="58.5" r="3.5" fill="white"/>
<circle cx="171.5" cy="58.5" r="3.5" fill="white"/>
<circle cx="183.5" cy="58.5" r="3.5" fill="white"/>
</svg>
